#!OML:ASF Y:\EmotionMaleHayes\Project 1\Capture day 1\Session 1\Male1.ASF
:FULLY-SPECIFIED
:DEGREES
246
root 16.015 16.5779 -3.88303 71.7786 88.6376 415.245
lowerback 28.8357 5.09509 7.76675
upperback 5.53003 10.3402 7.4765
thorax -9.69355 4.94281 0.263638
lowerneck -23.1944 -0.877787 8.02226
upperneck 11.8799 -3.28159 -2.27387
head 7.23039 -1.40185 -2.44317
rclavicle 6.20208e-014 5.40694e-014
rhumerus -29.2318 36.217 -85.911
rradius 97.521
rwrist -10.6192
rhand -20.9292 -21.1051
rfingers 7.12502
rthumb 5.44273 -51.0152
lclavicle 6.20208e-014 5.40694e-014
lhumerus -37.648 1.10585 37.6629
lradius 25.2825
lwrist -4.68622
lhand -33.5788 -20.0189
lfingers 7.12502
lthumb -6.77294 9.85272
rfemur 6.8148 -2.61671 0.39828
rtibia 21.6103
rfoot -370.5 -7.29093
rtoes -11.3429
lfemur -43.599 21.7417 14.3814
ltibia 78.8361
lfoot 347.49 8.72018
ltoes 1.28171
247
root 16.4561 16.6505 -4.06317 110.666 88.4386 454.374
lowerback 28.3081 5.55023 7.76923
upperback 5.46891 10.878 7.56392
thorax -9.5036 5.20706 0.223076
lowerneck -22.6342 -1.81514 7.24179
upperneck 11.9719 -4.37774 -1.57644
head 7.14555 -1.89155 -2.21084
rclavicle -3.18055e-015 5.08889e-014
rhumerus -30.1086 35.8937 -85.4969
rradius 97.1699
rwrist -11.9357
rhand -21.2914 -20.2352
rfingers 7.12502
rthumb 5.093 -50.1539
lclavicle -3.18055e-015 5.08889e-014
lhumerus -35.295 0.979049 34.78
lradius 25.7322
lwrist -4.11032
lhand -32.1645 -19.8768
lfingers 7.12502
lthumb -5.40757 10.0342
rfemur 9.69961 -1.91306 -0.471307
rtibia 19.0893
rfoot -366.285 -8.96204
rtoes 0.389414
lfemur -46.4575 23.1925 12.2122
ltibia 76.3712
lfoot 346.362 10.3882
ltoes -3.7265
248
root 16.9157 16.7256 -4.24335 142.137 87.0819 486.522
lowerback 28.2423 5.66905 7.95926
upperback 5.36576 11.1079 7.61713
thorax -9.56077 5.30948 0.102546
lowerneck -22.403 -2.85513 6.33254
upperneck 12.2205 -5.63403 -0.738403
head 7.18395 -2.44428 -1.93877
rclavicle 4.13472e-014 3.81667e-014
rhumerus -31.3146 34.9783 -85.1897
rradius 96.7391
rwrist -12.7848
rhand -21.4178 -20.6829
rfingers 7.12502
rthumb 4.97092 -50.6046
lclavicle 4.13472e-014 3.81667e-014
lhumerus -32.7063 0.275487 32.2801
lradius 26.4569
lwrist -2.81536
lhand -31.0024 -19.2109
lfingers 7.12502
lthumb -4.28544 10.7257
rfemur 13.611 -0.753093 -0.958432
rtibia 16.0825
rfoot -362.334 -11.6154
rtoes 9.79174
lfemur -48.8178 23.3026 9.59027
ltibia 73.3193
lfoot 346.749 10.8976
ltoes -1.62596
249
root 17.4019 16.7945 -4.41607 149.481 85.9866 494.676
lowerback 28.1594 6.05342 7.91289
upperback 5.38639 11.611 7.78593
thorax -9.53054 5.55691 0.151326
lowerneck -22.0633 -3.88514 5.41389
upperneck 12.4948 -6.84091 -0.105714
head 7.22893 -2.99523 -1.72678
rclavicle -4.6118e-014 -3.18055e-015
rhumerus -32.65 33.7281 -84.916
rradius 96.2091
rwrist -13.5405
rhand -21.2639 -21.1336
rfingers 7.12502
rthumb 5.11956 -51.0517
lclavicle -4.6118e-014 -3.18055e-015
lhumerus -30.0477 -0.294344 29.9836
lradius 27.3277
lwrist -1.35721
lhand -29.7491 -17.906
lfingers 7.12502
lthumb -3.07512 12.0515
rfemur 17.254 1.62208 -0.445398
rtibia 13.5334
rfoot -360.619 -13.535
rtoes 12.4642
lfemur -49.9903 23.7937 7.29267
ltibia 69.732
lfoot 347.646 10.672
ltoes -2.38741
250
root 17.8781 16.8521 -4.5699 157.552 85.0226 503.504
lowerback 28.053 6.4307 7.96955
upperback 5.36077 12.1609 8.06733
thorax -9.55133 5.82455 0.252682
lowerneck -21.5638 -4.97538 4.30486
upperneck 12.5202 -8.13291 0.938795
head 7.21042 -3.56235 -1.3529
rclavicle 1.06549e-013 1.81292e-013
rhumerus -33.8497 32.322 -84.6612
rradius 95.3598
rwrist -14.2417
rhand -21.3651 -21.7071
rfingers 7.12502
rthumb 5.02184 -51.6276
lclavicle 1.06549e-013 1.81292e-013
lhumerus -27.4473 -0.848337 27.7076
lradius 28.3888
lwrist 0.293463
lhand -30.1784 -19.1438
lfingers 7.12502
lthumb -3.48973 10.8073
rfemur 20.3658 4.56967 1.50933
rtibia 12.1442
rfoot -359.434 -15.3134
rtoes 14.9901
lfemur -51.1742 24.554 5.24982
ltibia 66.3544
lfoot 348.488 9.80361
ltoes -6.87945
251
root 18.3438 16.8992 -4.72688 159.867 83.9305 506.439
lowerback 27.91 6.83767 7.71761
upperback 5.31225 12.6267 8.20436
thorax -9.61314 6.05281 0.389035
lowerneck -21.2395 -5.92295 3.49022
upperneck 12.6502 -9.27353 1.58135
head 7.2495 -4.07981 -1.14721
rclavicle 1.03368e-013 -6.36111e-015
rhumerus -34.955 30.7743 -84.3686
rradius 94.3279
rwrist -14.8536
rhand -21.5436 -22.3715
rfingers 7.12502
rthumb 4.84948 -52.296
lclavicle 1.03368e-013 -6.36111e-015
lhumerus -24.8416 -1.30102 25.3436
lradius 29.9912
lwrist 3.10559
lhand -29.2157 -18.1385
lfingers 7.12502
lthumb -2.55998 11.8259
rfemur 22.7544 7.2567 3.41892
rtibia 12.2464
rfoot -359.453 -14.539
rtoes 15.5325
lfemur -52.4299 25.3327 2.5613
ltibia 63.1794
lfoot 349.796 8.65192
ltoes -9.09262
252
root 18.8163 16.9302 -4.90485 156.904 82.5278 503.91
lowerback 27.473 7.192 6.98887
upperback 5.25628 12.8101 8.12676
thorax -9.58811 6.16142 0.671643
lowerneck -20.4478 -6.71584 2.60672
upperneck 12.1889 -10.1847 2.45811
head 7.05287 -4.4964 -0.800658
rclavicle -1.09729e-013 -9.54166e-014
rhumerus -36.1247 29.2713 -84.1495
rradius 93.284
rwrist -15.3292
rhand -21.6562 -23.3406
rfingers 7.12502
rthumb 4.74079 -53.2676
lclavicle -1.09729e-013 -9.54166e-014
lhumerus -22.4375 -1.75086 23.0073
lradius 31.2292
lwrist 4.90435
lhand -30.3844 -19.2269
lfingers 7.12502
lthumb -3.68868 10.721
rfemur 24.5657 9.03875 4.36343
rtibia 13.5885
rfoot -358.539 -13.1982
rtoes 14.097
lfemur -53.5102 25.7043 -1.1325
ltibia 59.7761
lfoot 351.481 7.01897
ltoes -10.1941
253
root 19.2891 16.9499 -5.08891 157.907 81.2275 505.284
lowerback 26.8524 7.35439 6.78728
upperback 5.19426 12.8964 8.09736
thorax -9.37832 6.2239 0.789961
lowerneck -19.6154 -7.39812 1.86078
upperneck 11.7604 -10.9714 3.20573
head 6.8615 -4.863 -0.501471
rclavicle 1.1609e-013 1.17681e-013
rhumerus -37.2213 27.6647 -84.0274
rradius 91.9136
rwrist -15.5368
rhand -22.3877 -23.2526
rfingers 7.12502
rthumb 4.03442 -53.1941
lclavicle 1.1609e-013 1.17681e-013
lhumerus -19.8674 -1.14884 20.504
lradius 32.2016
lwrist 6.07679
lhand -30.9599 -19.8778
lfingers 7.12502
lthumb -4.24442 10.0597
rfemur 25.7399 10.0969 5.82465
rtibia 16.187
rfoot -357.688 -11.6352
rtoes 14.5931
lfemur -54.3138 25.8439 -4.3957
ltibia 56.1045
lfoot 353.431 4.90511
ltoes -11.1717
254
root 19.7476 16.9618 -5.26876 162.136 80.2125 509.887
lowerback 26.0188 7.41086 7.04075
upperback 5.34973 12.981 8.30559
thorax -8.77508 6.3137 0.974749
lowerneck -19.0663 -7.95611 1.27394
upperneck 11.3277 -11.6074 3.68953
head 6.69886 -5.17505 -0.302471
rclavicle 5.88403e-014 1.01778e-013
rhumerus -37.835 26.0629 -83.5867
rradius 90.4452
rwrist -15.6742
rhand -23.1497 -23.5641
rfingers 7.12502
rthumb 3.29858 -53.5184
lclavicle 5.88403e-014 1.01778e-013
lhumerus -17.2289 0.700473 18.1972
lradius 33.1034
lwrist 6.66747
lhand -31.3294 -19.9922
lfingers 7.12502
lthumb -4.60117 9.93779
rfemur 26.1766 10.6088 7.95815
rtibia 19.9417
rfoot -357.343 -10.082
rtoes 17.6928
lfemur -54.9089 26.0057 -6.91424
ltibia 52.4832
lfoot 355.634 2.59245
ltoes -11.259
